<svg id="Layer_1" data-name="Layer 1" xmlns="http://www.w3.org/2000/svg" xmlns:xlink="http://www.w3.org/1999/xlink" viewBox="0 0 153.41 35.41"><defs><style>.cls-1{fill:#013866;}.cls-2{fill:url(#Sfumatura_senza_nome_81);}.cls-3{fill:url(#Sfumatura_senza_nome_81-2);}.cls-4{fill:#036;}.cls-5{fill:url(#Sfumatura_senza_nome_81-3);}.cls-6{fill:url(#Sfumatura_senza_nome_81-4);}.cls-7{fill:url(#Sfumatura_senza_nome_81-5);}.cls-8{fill:url(#Sfumatura_senza_nome_81-6);}.cls-9{fill:url(#Sfumatura_senza_nome_81-7);}.cls-10{fill:url(#Sfumatura_senza_nome_81-8);}.cls-11{fill:url(#Sfumatura_senza_nome_81-9);}.cls-12{fill:url(#Sfumatura_senza_nome_81-10);}.cls-13{fill:url(#Sfumatura_senza_nome_81-11);}.cls-14{fill:url(#Sfumatura_senza_nome_81-12);}.cls-15{fill:url(#Sfumatura_senza_nome_81-13);}.cls-16{fill:url(#Sfumatura_senza_nome_81-14);}.cls-17{fill:url(#Sfumatura_senza_nome_81-15);}.cls-18{fill:url(#Sfumatura_senza_nome_81-16);}.cls-19{fill:url(#Sfumatura_senza_nome_81-17);}.cls-20{fill:url(#Sfumatura_senza_nome_81-18);}.cls-21{fill:url(#Sfumatura_senza_nome_81-19);}.cls-22{fill:url(#Sfumatura_senza_nome_81-20);}</style><linearGradient id="Sfumatura_senza_nome_81" x1="9.68" y1="-33.8" x2="33.17" y2="109.98" gradientUnits="userSpaceOnUse"><stop offset="0" stop-color="#d3e8ba"/><stop offset="1" stop-color="#00d5df"/></linearGradient><linearGradient id="Sfumatura_senza_nome_81-2" x1="9.3" y1="-33.74" x2="32.79" y2="110.04" xlink:href="#Sfumatura_senza_nome_81"/><linearGradient id="Sfumatura_senza_nome_81-3" x1="50.41" y1="-61.77" x2="79.36" y2="115.47" xlink:href="#Sfumatura_senza_nome_81"/><linearGradient id="Sfumatura_senza_nome_81-4" x1="58.97" y1="-63.17" x2="87.93" y2="114.07" xlink:href="#Sfumatura_senza_nome_81"/><linearGradient id="Sfumatura_senza_nome_81-5" x1="67.06" y1="-64.49" x2="96.01" y2="112.75" xlink:href="#Sfumatura_senza_nome_81"/><linearGradient id="Sfumatura_senza_nome_81-6" x1="77.68" y1="-66.22" x2="106.64" y2="111.01" xlink:href="#Sfumatura_senza_nome_81"/><linearGradient id="Sfumatura_senza_nome_81-7" x1="88.45" y1="-67.98" x2="117.4" y2="109.25" xlink:href="#Sfumatura_senza_nome_81"/><linearGradient id="Sfumatura_senza_nome_81-8" x1="96.84" y1="-69.35" x2="125.79" y2="107.88" xlink:href="#Sfumatura_senza_nome_81"/><linearGradient id="Sfumatura_senza_nome_81-9" x1="105.81" y1="-70.82" x2="134.76" y2="106.42" xlink:href="#Sfumatura_senza_nome_81"/><linearGradient id="Sfumatura_senza_nome_81-10" x1="113.53" y1="-72.08" x2="142.48" y2="105.15" xlink:href="#Sfumatura_senza_nome_81"/><linearGradient id="Sfumatura_senza_nome_81-11" x1="36.6" y1="-56.32" x2="65.55" y2="120.91" xlink:href="#Sfumatura_senza_nome_81"/><linearGradient id="Sfumatura_senza_nome_81-12" x1="48.76" y1="-58.31" x2="77.72" y2="118.93" xlink:href="#Sfumatura_senza_nome_81"/><linearGradient id="Sfumatura_senza_nome_81-13" x1="60.54" y1="-60.23" x2="89.49" y2="117" xlink:href="#Sfumatura_senza_nome_81"/><linearGradient id="Sfumatura_senza_nome_81-14" x1="72.69" y1="-62.21" x2="101.64" y2="115.02" xlink:href="#Sfumatura_senza_nome_81"/><linearGradient id="Sfumatura_senza_nome_81-15" x1="83.26" y1="-63.94" x2="112.21" y2="113.29" xlink:href="#Sfumatura_senza_nome_81"/><linearGradient id="Sfumatura_senza_nome_81-16" x1="94.53" y1="-65.78" x2="123.49" y2="111.45" xlink:href="#Sfumatura_senza_nome_81"/><linearGradient id="Sfumatura_senza_nome_81-17" x1="105.96" y1="-67.65" x2="134.91" y2="109.58" xlink:href="#Sfumatura_senza_nome_81"/><linearGradient id="Sfumatura_senza_nome_81-18" x1="113.74" y1="-68.92" x2="142.69" y2="108.31" xlink:href="#Sfumatura_senza_nome_81"/><linearGradient id="Sfumatura_senza_nome_81-19" x1="123.77" y1="-70.56" x2="152.73" y2="106.67" xlink:href="#Sfumatura_senza_nome_81"/><linearGradient id="Sfumatura_senza_nome_81-20" x1="135.09" y1="-72.41" x2="164.05" y2="104.82" xlink:href="#Sfumatura_senza_nome_81"/></defs><title>logo</title><circle class="cls-1" cx="17.7" cy="17.7" r="15.61"/><path class="cls-2" d="M18.53,12.09a5.82,5.82,0,0,1,2.22.44A2.28,2.28,0,1,0,23,10.14a2.14,2.14,0,0,0-.84.17,8.48,8.48,0,0,0-3.65-.82,8.32,8.32,0,0,0-8.42,8.24,8.3,8.3,0,0,0,8.42,8.19,8.41,8.41,0,0,0,5.18-1.78,1,1,0,0,0,.43-.55v0a1,1,0,0,0,.05-.11,2.26,2.26,0,0,0,.07-.39V18a1.28,1.28,0,0,0-1.33-1.27H20.1a2.24,2.24,0,0,0-1.85-1,2.28,2.28,0,1,0,1.89,3.53h1.52v3.13a6.28,6.28,0,0,1-3.13.87,5.68,5.68,0,0,1-4.11-1.67,5.41,5.41,0,0,1,0-7.89A5.68,5.68,0,0,1,18.53,12.09Z"/><path class="cls-3" d="M17.7,0A17.71,17.71,0,1,0,35.41,17.7,17.71,17.71,0,0,0,17.7,0Zm0,33.31A15.61,15.61,0,1,1,33.31,17.7,15.6,15.6,0,0,1,17.7,33.31Z"/><circle class="cls-4" cx="18.2" cy="18.06" r="1"/><circle class="cls-4" cx="23.05" cy="12.43" r="1"/><path class="cls-5" d="M62.8,30.74a.73.73,0,1,1-1.45,0V23h0a.69.69,0,0,1,.29-.61.74.74,0,0,1,1,.16l4.31,6V23a.73.73,0,0,1,.72-.72.74.74,0,0,1,.73.72v7.76a.73.73,0,0,1-.73.73.72.72,0,0,1-.55-.27.27.27,0,0,1-.07-.08L62.8,25.2Z"/><path class="cls-6" d="M70.76,30.74V22.86a.72.72,0,0,1,.73-.73h4.36a.74.74,0,0,1,.74.73.75.75,0,0,1-.74.75H72.24v2.44h3.11a.75.75,0,0,1,.73.74.74.74,0,0,1-.73.74H72.24V30h3.61a.74.74,0,1,1,0,1.48H71.49A.73.73,0,0,1,70.76,30.74Z"/><path class="cls-7" d="M84.18,23.61H82.06v7.13a.74.74,0,0,1-1.47,0V23.61H78.48a.74.74,0,0,1-.73-.75.72.72,0,0,1,.73-.73h5.7a.73.73,0,0,1,.73.73A.75.75,0,0,1,84.18,23.61Z"/><path class="cls-8" d="M98.62,23.24,95.35,31a.45.45,0,0,1-.06.12h0s0,.05-.06.08,0,0,0,0l-.09.07h0a1.25,1.25,0,0,1-.12.08h0l-.11,0h-.32l-.09,0h0a.62.62,0,0,1-.12-.08h0a.46.46,0,0,0-.1-.07l0,0-.06-.08h0A.45.45,0,0,1,94,31l-1.74-4.14L90.51,31l-.06.12h0l-.08.08s0,0,0,0a.18.18,0,0,0-.08.07h0l-.11.08h0a.16.16,0,0,0-.11,0h-.33l-.1,0h0l-.12-.08h0s0-.06-.09-.07l0,0-.06-.08h0s0-.08-.07-.12l-3.28-7.78a.73.73,0,0,1,1.35-.56l2.61,6.17,1.72-4.09a.73.73,0,0,1,.7-.46.75.75,0,0,1,.69.46l1.72,4.09,2.6-6.17a.74.74,0,0,1,1-.39A.72.72,0,0,1,98.62,23.24Z"/><path class="cls-9" d="M107.12,23.29a4.89,4.89,0,0,1,0,6.75,4.35,4.35,0,0,1-3.19,1.43A4.47,4.47,0,0,1,100.67,30a4.95,4.95,0,0,1,0-6.75,4.43,4.43,0,0,1,3.26-1.43A4.31,4.31,0,0,1,107.12,23.29ZM107,26.67a3.46,3.46,0,0,0-.91-2.34,2.87,2.87,0,0,0-2.11-.95,2.91,2.91,0,0,0-2.16.95,3.4,3.4,0,0,0-.9,2.34,3.35,3.35,0,0,0,.9,2.32,2.92,2.92,0,0,0,2.16,1A2.88,2.88,0,0,0,106,29,3.41,3.41,0,0,0,107,26.67Z"/><path class="cls-10" d="M116.08,30.36a.74.74,0,0,1-.47.94,1.32,1.32,0,0,1-.29,0h0a1,1,0,0,1-.52-.15,1.3,1.3,0,0,1-.43-.47,3.5,3.5,0,0,1-.28-1.6,1.1,1.1,0,0,0-.16-.57,1.25,1.25,0,0,0-.4-.39,2.55,2.55,0,0,0-.75-.32H111.2v2.9a.74.74,0,0,1-.75.73.73.73,0,0,1-.73-.73V22.86a.72.72,0,0,1,.73-.73h2.39a2.86,2.86,0,0,1,1.81,5.06,1.83,1.83,0,0,1,.47.49,2.51,2.51,0,0,1,.44,1.44,4.17,4.17,0,0,0,0,.79A.73.73,0,0,1,116.08,30.36ZM114.21,25a1.37,1.37,0,0,0-1.37-1.39H111.2v2.75h1.64A1.36,1.36,0,0,0,114.21,25Z"/><path class="cls-11" d="M118.24,30.74V22.93a.74.74,0,0,1,1.47,0v3.83L124,22.42a.74.74,0,1,1,1,1l-2.94,2.93,3,3.88a.71.71,0,0,1-.1,1,.7.7,0,0,1-.47.17.71.71,0,0,1-.55-.27l-2.88-3.77-1.39,1.41v1.9a.74.74,0,0,1-1.47,0Z"/><path class="cls-12" d="M126.36,29.15a.69.69,0,0,1,1-.1,4.28,4.28,0,0,0,2.55,1,2.9,2.9,0,0,0,1.67-.49,1.21,1.21,0,0,0,.57-1,.75.75,0,0,0-.12-.43,1.26,1.26,0,0,0-.4-.4,5.43,5.43,0,0,0-1.82-.63h0a7.21,7.21,0,0,1-1.72-.52,2.81,2.81,0,0,1-1.24-1,2,2,0,0,1-.31-1.09,2.45,2.45,0,0,1,1.07-1.95,4,4,0,0,1,2.31-.71,5.27,5.27,0,0,1,2.91,1.07.69.69,0,0,1,.18.95.68.68,0,0,1-.95.2,3.82,3.82,0,0,0-2.14-.86,2.55,2.55,0,0,0-1.5.46,1.06,1.06,0,0,0-.51.84.62.62,0,0,0,.1.37,1.09,1.09,0,0,0,.36.35,4.76,4.76,0,0,0,1.67.59h0a7.36,7.36,0,0,1,1.84.56,3.1,3.1,0,0,1,1.34,1.1,2.17,2.17,0,0,1,.32,1.14,2.59,2.59,0,0,1-1.15,2.07,4.17,4.17,0,0,1-2.47.76,5.78,5.78,0,0,1-3.41-1.34A.7.7,0,0,1,126.36,29.15Z"/><path class="cls-13" d="M41.44,13a7.22,7.22,0,0,1,7.31-7.15,7.32,7.32,0,0,1,4.52,1.54A1.14,1.14,0,0,1,53.49,9a1.17,1.17,0,0,1-1.61.18,5.1,5.1,0,0,0-3.13-1.07,5,5,0,0,0-3.57,1.44,4.71,4.71,0,0,0,0,6.86,5,5,0,0,0,3.57,1.45,5.54,5.54,0,0,0,2.72-.75V14.39H48.63a1.15,1.15,0,0,1-1.13-1.13,1.12,1.12,0,0,1,1.13-1.11h3.95a1.12,1.12,0,0,1,1.15,1.11v4.38a1.72,1.72,0,0,1-.06.34s0,.06,0,.1v0a.93.93,0,0,1-.38.47,7.32,7.32,0,0,1-4.5,1.55A7.2,7.2,0,0,1,41.44,13Z"/><path class="cls-14" d="M56.11,19V7.33A1.08,1.08,0,0,1,57.2,6.24h6.48a1.1,1.1,0,0,1,0,2.2H58.31v3.63h4.62A1.11,1.11,0,0,1,64,13.16a1.1,1.1,0,0,1-1.09,1.11H58.31v3.65h5.37a1.1,1.1,0,0,1,0,2.2H57.26s0,0,0,0l0,0A1.09,1.09,0,0,1,56.11,19Z"/><path class="cls-15" d="M69.45,19a1.08,1.08,0,1,1-2.16,0V7.49a1.07,1.07,0,0,1,1.94-.67l6.41,8.86V7.51a1.08,1.08,0,0,1,1.07-1.07A1.1,1.1,0,0,1,77.8,7.51V19a1.11,1.11,0,0,1-1.09,1.09,1.08,1.08,0,0,1-.82-.4.94.94,0,0,1-.09-.12l-6.35-8.8Z"/><path class="cls-16" d="M80.67,19V7.33a1.08,1.08,0,0,1,1.09-1.09h6.48a1.1,1.1,0,0,1,0,2.2H82.87v3.63h4.62a1.11,1.11,0,0,1,1.09,1.09,1.1,1.1,0,0,1-1.09,1.11H82.87v3.65h5.37a1.1,1.1,0,0,1,0,2.2H81.82s0,0,0,0l0,0A1.09,1.09,0,0,1,80.67,19Z"/><path class="cls-17" d="M101.11,18.47a1.1,1.1,0,0,1-.69,1.39,1.76,1.76,0,0,1-.44.06h0a1.42,1.42,0,0,1-.77-.22,1.93,1.93,0,0,1-.64-.69,5.47,5.47,0,0,1-.41-2.38,1.65,1.65,0,0,0-.24-.85,1.92,1.92,0,0,0-.59-.58,4.09,4.09,0,0,0-1.11-.47H93.86V19a1.11,1.11,0,0,1-1.11,1.09A1.09,1.09,0,0,1,91.66,19V7.33a1.07,1.07,0,0,1,1.09-1.09h3.54A4.24,4.24,0,0,1,99,13.76a2.68,2.68,0,0,1,.69.73,3.72,3.72,0,0,1,.66,2.14,5,5,0,0,0,.08,1.17A1.09,1.09,0,0,1,101.11,18.47Zm-2.77-8a2.06,2.06,0,0,0-2-2.07H93.86v4.09h2.43A2,2,0,0,0,98.34,10.51Z"/><path class="cls-18" d="M110.8,16.85H106l-1,2.57a1.12,1.12,0,0,1-1,.7,1.16,1.16,0,0,1-.38-.06,1.12,1.12,0,0,1-.65-1.43L107.34,7a1.14,1.14,0,0,1,2.1,0l4.38,11.67a1.12,1.12,0,0,1-.66,1.43,1,1,0,0,1-.37.06,1.05,1.05,0,0,1-1-.7ZM110,14.67l-1.6-4.26-1.61,4.26Z"/><path class="cls-19" d="M122.44,8.44h-3.15V19a1.09,1.09,0,1,1-2.18,0V8.44H114a1.1,1.1,0,0,1-1.09-1.11A1.07,1.07,0,0,1,114,6.24h8.46a1.09,1.09,0,0,1,1.09,1.09A1.11,1.11,0,0,1,122.44,8.44Z"/><path class="cls-20" d="M126.05,7.33a1.08,1.08,0,0,1,1.09-1.09,1.1,1.1,0,0,1,1.11,1.09V19a1.1,1.1,0,0,1-1.11,1.09A1.08,1.08,0,0,1,126.05,19Z"/><path class="cls-21" d="M135.88,19.92a.85.85,0,0,0-.14-.1s0,0,0-.06a.94.94,0,0,1-.09-.12,0,0,0,0,1,0,0,.7.7,0,0,0-.1-.16L130.65,7.89a1.08,1.08,0,0,1,2-.83l3.87,9.17,3.86-9.17a1.09,1.09,0,0,1,2,.83l-4.89,11.57a.6.6,0,0,1-.08.16s0,0,0,0-.08.08-.1.12l0,.06-.12.1,0,0a1.12,1.12,0,0,1-.16.1l0,0a.42.42,0,0,0-.15,0h0a.75.75,0,0,1-.2,0,.68.68,0,0,1-.2,0h0a.47.47,0,0,0-.16,0,0,0,0,0,0,0,0h0l-.18-.12Z"/><path class="cls-22" d="M144.75,19V7.33a1.07,1.07,0,0,1,1.09-1.09h6.48a1.1,1.1,0,0,1,0,2.2H147v3.63h4.61a1.11,1.11,0,0,1,1.09,1.09,1.1,1.1,0,0,1-1.09,1.11H147v3.65h5.37a1.1,1.1,0,0,1,0,2.2H145.9s0,0,0,0l0,0A1.09,1.09,0,0,1,144.75,19Z"/></svg>